# Blender v2.79 (sub 0) OBJ File: ''
# www.blender.org
mtllib headstone.mtl
o headstone
v -1.618637 1.293417 -0.803365
v -1.618637 -0.261375 -5.986009
v -1.618637 -0.261376 -0.803366
v -1.618637 1.293418 -5.986009
v -0.582108 2.329947 -1.839894
v -0.582108 1.293418 -4.949480
v -0.582108 1.293417 -1.839894
v -0.582108 2.329947 -4.949480
v -0.063844 9.585647 -2.358157
v -0.063844 2.329947 -4.431215
v -0.063844 2.329947 -2.358158
v -0.063844 9.585647 -4.431214
v 0.065722 10.103911 -2.358157
v 0.065722 9.585647 -4.431214
v 0.065722 9.585647 -2.358157
v 0.065722 10.103911 -4.431214
v 0.195288 10.492610 -2.358157
v 0.195288 10.103911 -4.431214
v 0.195288 10.103911 -2.358157
v 0.195288 10.492610 -4.431214
v 0.324854 10.751742 -2.358157
v 0.324854 10.492610 -4.431214
v 0.324854 10.492610 -2.358157
v 0.324854 10.751742 -4.431213
v 0.454420 10.881308 -2.358157
v 0.454420 10.751742 -4.431213
v 0.454420 10.751742 -2.358157
v 0.454420 10.881308 -4.431213
v 0.583986 11.010874 -2.358157
v 0.583986 10.881308 -4.431213
v 0.583986 10.881308 -2.358157
v 0.583986 11.010874 -4.431213
v 0.843119 11.140440 -2.358157
v 0.843119 11.010874 -4.431213
v 0.843119 11.010874 -2.358157
v 0.843119 11.140440 -4.431213
v 1.231817 11.270006 -2.358157
v 1.231817 11.140440 -4.431213
v 1.231817 11.140440 -2.358157
v 1.231817 11.270006 -4.431213
v 1.750081 11.399572 -2.358157
v 1.750081 11.270006 -4.431213
v 1.750081 11.270006 -2.358157
v 1.750081 11.399572 -4.431213
v 3.304875 11.270006 -2.358157
v 3.304875 11.270006 -4.431213
v 3.304875 11.399572 -2.358157
v 3.304875 11.399572 -4.431213
v 3.823139 11.140440 -2.358157
v 3.823139 11.140440 -4.431213
v 3.823139 11.270006 -2.358157
v 3.823139 11.270006 -4.431213
v 4.211837 11.010874 -2.358157
v 4.211837 11.010874 -4.431213
v 4.211837 11.140440 -2.358157
v 4.211837 11.140440 -4.431213
v 4.470969 10.881308 -2.358157
v 4.470969 10.881308 -4.431213
v 4.470969 11.010874 -2.358157
v 4.470969 11.010874 -4.431213
v 4.600535 10.751742 -2.358157
v 4.600535 10.751742 -4.431213
v 4.600535 10.881308 -2.358157
v 4.600535 10.881308 -4.431213
v 4.730101 10.492610 -2.358157
v 4.730101 10.492610 -4.431214
v 4.730101 10.751742 -2.358157
v 4.730101 10.751742 -4.431213
v 4.859667 10.103911 -2.358157
v 4.859667 10.103911 -4.431214
v 4.859667 10.492610 -2.358157
v 4.859667 10.492610 -4.431214
v 4.989233 9.585647 -2.358157
v 4.989233 9.585647 -4.431214
v 4.989233 10.103911 -2.358157
v 4.989233 10.103911 -4.431214
v 5.118800 2.329947 -2.358158
v 5.118800 2.329947 -4.431215
v 5.118800 9.585647 -2.358157
v 5.118800 9.585647 -4.431214
v 5.637064 1.293417 -1.839894
v 5.637064 1.293418 -4.949480
v 5.637064 2.329947 -1.839894
v 5.637064 2.329947 -4.949480
v 6.673592 -0.261376 -0.803366
v 6.673592 -0.261375 -5.986009
v 6.673592 1.293417 -0.803365
v 6.673592 1.293418 -5.986009
v 6.673592 -0.261376 -0.803366
v -1.618637 1.293417 -0.803365
v -1.618637 -0.261376 -0.803366
v 6.673592 1.293417 -0.803365
v 5.637064 1.293417 -1.839894
v -0.582108 2.329947 -1.839894
v -0.582108 1.293417 -1.839894
v 5.637064 2.329947 -1.839894
v 0.065722 9.585647 -2.358157
v -0.063844 9.585647 -2.358157
v -0.063844 2.329947 -2.358158
v 0.195288 10.103911 -2.358157
v 0.065722 10.103911 -2.358157
v 0.324854 10.492610 -2.358157
v 0.195288 10.492610 -2.358157
v 0.454420 10.751742 -2.358157
v 0.324854 10.751742 -2.358157
v 0.583986 10.881308 -2.358157
v 0.454420 10.881308 -2.358157
v 0.843119 11.010874 -2.358157
v 0.583986 11.010874 -2.358157
v 1.231817 11.140440 -2.358157
v 0.843119 11.140440 -2.358157
v 1.750081 11.270006 -2.358157
v 1.231817 11.270006 -2.358157
v 3.304875 11.270006 -2.358157
v 1.750081 11.399572 -2.358157
v 3.304875 11.399572 -2.358157
v 3.823139 11.140440 -2.358157
v 3.823139 11.270006 -2.358157
v 4.211837 11.010874 -2.358157
v 4.211837 11.140440 -2.358157
v 4.470969 10.881308 -2.358157
v 4.470969 11.010874 -2.358157
v 4.600535 10.751742 -2.358157
v 4.600535 10.881308 -2.358157
v 4.730101 10.492610 -2.358157
v 4.730101 10.751742 -2.358157
v 4.859667 10.103911 -2.358157
v 4.859667 10.492610 -2.358157
v 4.989233 9.585647 -2.358157
v 4.989233 10.103911 -2.358157
v 5.118800 2.329947 -2.358158
v 5.118800 9.585647 -2.358157
v -0.063844 2.329947 -4.431215
v -0.063844 9.585647 -4.431214
v 0.065722 9.585647 -4.431214
v 0.065722 10.103911 -4.431214
v 0.195288 10.103911 -4.431214
v 0.195288 10.492610 -4.431214
v 0.324854 10.492610 -4.431214
v 0.324854 10.751742 -4.431213
v 0.454420 10.751742 -4.431213
v 0.454420 10.881308 -4.431213
v 0.583986 10.881308 -4.431213
v 0.583986 11.010874 -4.431213
v 0.843119 11.010874 -4.431213
v 0.843119 11.140440 -4.431213
v 1.231817 11.140440 -4.431213
v 1.231817 11.270006 -4.431213
v 1.750081 11.270006 -4.431213
v 3.304875 11.270006 -4.431213
v 1.750081 11.399572 -4.431213
v 3.304875 11.399572 -4.431213
v 3.823139 11.140440 -4.431213
v 3.823139 11.270006 -4.431213
v 4.211837 11.010874 -4.431213
v 4.211837 11.140440 -4.431213
v 4.470969 10.881308 -4.431213
v 4.470969 11.010874 -4.431213
v 4.600535 10.751742 -4.431213
v 4.600535 10.881308 -4.431213
v 4.730101 10.492610 -4.431214
v 4.730101 10.751742 -4.431213
v 4.859667 10.103911 -4.431214
v 4.859667 10.492610 -4.431214
v 4.989233 9.585647 -4.431214
v 4.989233 10.103911 -4.431214
v 5.118800 2.329947 -4.431215
v 5.118800 9.585647 -4.431214
v -0.582108 1.293418 -4.949480
v -0.582108 2.329947 -4.949480
v 5.637064 1.293418 -4.949480
v 5.637064 2.329947 -4.949480
v -1.618637 -0.261375 -5.986009
v -1.618637 1.293418 -5.986009
v 6.673592 -0.261375 -5.986009
v 6.673592 1.293418 -5.986009
v -1.618637 -0.261375 -5.986009
v 6.673592 -0.261376 -0.803366
v -1.618637 -0.261376 -0.803366
v 6.673592 -0.261375 -5.986009
v -1.618637 1.293417 -0.803365
v 6.673592 1.293417 -0.803365
v -0.582108 1.293417 -1.839894
v 5.637064 1.293417 -1.839894
v -0.582108 1.293418 -4.949480
v 5.637064 1.293418 -4.949480
v -1.618637 1.293418 -5.986009
v 6.673592 1.293418 -5.986009
v -0.582108 2.329947 -1.839894
v 5.637064 2.329947 -1.839894
v -0.063844 2.329947 -2.358158
v 5.118800 2.329947 -2.358158
v -0.063844 2.329947 -4.431215
v 5.118800 2.329947 -4.431215
v -0.582108 2.329947 -4.949480
v 5.637064 2.329947 -4.949480
v -0.063844 9.585647 -2.358157
v 0.065722 9.585647 -2.358157
v -0.063844 9.585647 -4.431214
v 0.065722 9.585647 -4.431214
v 4.989233 9.585647 -2.358157
v 5.118800 9.585647 -2.358157
v 4.989233 9.585647 -4.431214
v 5.118800 9.585647 -4.431214
v 0.065722 10.103911 -2.358157
v 0.195288 10.103911 -2.358157
v 0.065722 10.103911 -4.431214
v 0.195288 10.103911 -4.431214
v 4.859667 10.103911 -2.358157
v 4.989233 10.103911 -2.358157
v 4.859667 10.103911 -4.431214
v 4.989233 10.103911 -4.431214
v 0.195288 10.492610 -2.358157
v 0.324854 10.492610 -2.358157
v 0.195288 10.492610 -4.431214
v 0.324854 10.492610 -4.431214
v 4.730101 10.492610 -2.358157
v 4.859667 10.492610 -2.358157
v 4.730101 10.492610 -4.431214
v 4.859667 10.492610 -4.431214
v 0.324854 10.751742 -2.358157
v 0.454420 10.751742 -2.358157
v 0.324854 10.751742 -4.431213
v 0.454420 10.751742 -4.431213
v 4.600535 10.751742 -2.358157
v 4.730101 10.751742 -2.358157
v 4.600535 10.751742 -4.431213
v 4.730101 10.751742 -4.431213
v 0.454420 10.881308 -2.358157
v 0.583986 10.881308 -2.358157
v 0.454420 10.881308 -4.431213
v 0.583986 10.881308 -4.431213
v 4.470969 10.881308 -2.358157
v 4.600535 10.881308 -2.358157
v 4.470969 10.881308 -4.431213
v 4.600535 10.881308 -4.431213
v 0.583986 11.010874 -2.358157
v 0.843119 11.010874 -2.358157
v 0.583986 11.010874 -4.431213
v 0.843119 11.010874 -4.431213
v 4.211837 11.010874 -2.358157
v 4.470969 11.010874 -2.358157
v 4.211837 11.010874 -4.431213
v 4.470969 11.010874 -4.431213
v 0.843119 11.140440 -2.358157
v 1.231817 11.140440 -2.358157
v 0.843119 11.140440 -4.431213
v 1.231817 11.140440 -4.431213
v 3.823139 11.140440 -2.358157
v 4.211837 11.140440 -2.358157
v 3.823139 11.140440 -4.431213
v 4.211837 11.140440 -4.431213
v 1.231817 11.270006 -2.358157
v 1.750081 11.270006 -2.358157
v 1.231817 11.270006 -4.431213
v 1.750081 11.270006 -4.431213
v 3.304875 11.270006 -2.358157
v 3.823139 11.270006 -2.358157
v 3.304875 11.270006 -4.431213
v 3.823139 11.270006 -4.431213
v 1.750081 11.399572 -2.358157
v 3.304875 11.399572 -2.358157
v 1.750081 11.399572 -4.431213
v 3.304875 11.399572 -4.431213
vt 0.472222 0.492958
vt 0.388889 0.774648
vt 0.388889 0.492958
vt 0.472222 0.774648
vt 0.444445 0.774648
vt 0.388889 0.943662
vt 0.388889 0.774648
vt 0.444445 0.943662
vt 0.166667 0.492958
vt 0.277778 0.887324
vt 0.166667 0.887324
vt 0.277778 0.492958
vt 0.138889 0.830986
vt 0.111112 0.943662
vt 0.111111 0.830986
vt 0.138889 0.943662
vt 0.548611 0.605634
vt 0.527778 0.718310
vt 0.527778 0.605634
vt 0.548612 0.718310
vt 0.513889 0.830986
vt 0.500000 0.943662
vt 0.500000 0.830986
vt 0.513889 0.943662
vt 0.979167 0.281690
vt 0.972222 0.394366
vt 0.972222 0.281690
vt 0.979167 0.394366
vt 0.979167 0.507042
vt 0.972222 0.619718
vt 0.972222 0.507042
vt 0.979167 0.619718
vt 0.944445 0.788732
vt 0.937500 0.901408
vt 0.937500 0.788732
vt 0.944445 0.901408
vt 0.972223 0.788732
vt 0.965279 0.901408
vt 0.965278 0.788732
vt 0.972223 0.901408
vt 0.548612 0.830986
vt 0.541667 0.943662
vt 0.541667 0.830986
vt 0.548612 0.943662
vt 0.937500 0.788732
vt 0.937500 0.901408
vt 0.930556 0.788732
vt 0.930556 0.901408
vt 0.965278 0.788732
vt 0.965278 0.901408
vt 0.958334 0.788732
vt 0.958334 0.901408
vt 0.951389 0.788732
vt 0.951389 0.901408
vt 0.944445 0.788732
vt 0.944445 0.901408
vt 0.979167 0.619718
vt 0.979167 0.732394
vt 0.972222 0.619718
vt 0.972222 0.732394
vt 0.979167 0.394366
vt 0.979167 0.507042
vt 0.972222 0.394366
vt 0.972222 0.507042
vt 0.527778 0.830986
vt 0.527778 0.943662
vt 0.513889 0.830986
vt 0.513889 0.943662
vt 0.548611 0.718310
vt 0.548612 0.830986
vt 0.527778 0.718310
vt 0.527778 0.830986
vt 0.111111 0.830986
vt 0.111111 0.943662
vt 0.083333 0.830986
vt 0.083334 0.943662
vt 0.388889 0.887324
vt 0.277778 0.887324
vt 0.388889 0.492958
vt 0.277778 0.492958
vt 0.916667 0.788732
vt 0.916667 0.619718
vt 0.972222 0.788732
vt 0.972222 0.619718
vt 0.916667 0.281690
vt 0.916667 0.000000
vt 1.000000 0.281690
vt 1.000000 0.000000
vt 0.833333 0.000000
vt 0.916667 0.450704
vt 0.833333 0.450704
vt 0.916667 0.000000
vt 0.527778 0.830986
vt 0.472223 0.492958
vt 0.527778 0.492958
vt 0.472223 0.830986
vt 0.270833 0.098592
vt 0.277778 0.098592
vt 0.277778 0.492958
vt 0.263889 0.070423
vt 0.270833 0.070423
vt 0.256944 0.049296
vt 0.263889 0.049296
vt 0.250000 0.035211
vt 0.256944 0.035211
vt 0.243055 0.028169
vt 0.250000 0.028169
vt 0.229167 0.021127
vt 0.243055 0.021127
vt 0.208333 0.014085
vt 0.229167 0.014085
vt 0.180555 0.007042
vt 0.208333 0.007042
vt 0.097222 0.007042
vt 0.180555 0.000000
vt 0.097222 0.000000
vt 0.069444 0.014084
vt 0.069444 0.007042
vt 0.048611 0.021127
vt 0.048611 0.014084
vt 0.034722 0.028169
vt 0.034722 0.021127
vt 0.027778 0.035211
vt 0.027778 0.028169
vt 0.020833 0.049296
vt 0.020833 0.035211
vt 0.013889 0.070423
vt 0.013889 0.049296
vt 0.006944 0.098592
vt 0.006944 0.070423
vt 0.000000 0.492958
vt 0.000000 0.098592
vt 0.277778 0.492958
vt 0.277778 0.098592
vt 0.284722 0.098592
vt 0.284722 0.070423
vt 0.291667 0.070423
vt 0.291667 0.049296
vt 0.298611 0.049296
vt 0.298611 0.035211
vt 0.305555 0.035211
vt 0.305555 0.028169
vt 0.312500 0.028169
vt 0.312500 0.021127
vt 0.326389 0.021127
vt 0.326389 0.014084
vt 0.347222 0.014084
vt 0.347222 0.007042
vt 0.375000 0.007042
vt 0.458333 0.007042
vt 0.375000 0.000000
vt 0.458333 0.000000
vt 0.486111 0.014085
vt 0.486111 0.007042
vt 0.506944 0.021127
vt 0.506944 0.014085
vt 0.520833 0.028169
vt 0.520833 0.021127
vt 0.527778 0.035211
vt 0.527778 0.028169
vt 0.534722 0.049296
vt 0.534722 0.035211
vt 0.541666 0.070423
vt 0.541666 0.049296
vt 0.548611 0.098592
vt 0.548611 0.070423
vt 0.555555 0.492958
vt 0.555555 0.098592
vt 0.972222 0.619718
vt 0.916667 0.619718
vt 0.972222 0.281690
vt 0.916667 0.281690
vt 0.916667 0.901408
vt 0.833333 0.901408
vt 0.916667 0.450704
vt 0.833333 0.450704
vt 0.555556 0.450704
vt 0.833333 0.000000
vt 0.833333 0.450704
vt 0.555555 0.000000
vt 0.833333 0.450704
vt 0.833333 0.901408
vt 0.777778 0.507042
vt 0.777778 0.845070
vt 0.611111 0.507042
vt 0.611111 0.845070
vt 0.555555 0.450704
vt 0.555555 0.901408
vt 0.000000 0.830986
vt 0.000000 0.492958
vt 0.027778 0.802817
vt 0.027778 0.521127
vt 0.138889 0.802817
vt 0.138889 0.521127
vt 0.166667 0.830986
vt 0.166667 0.492958
vt 0.187500 0.887324
vt 0.194445 0.887324
vt 0.187500 1.000000
vt 0.194445 1.000000
vt 0.208334 0.887324
vt 0.215278 0.887324
vt 0.208334 1.000000
vt 0.215278 1.000000
vt 0.215278 0.887324
vt 0.222222 0.887324
vt 0.215278 1.000000
vt 0.222222 1.000000
vt 0.951389 0.788732
vt 0.958334 0.788732
vt 0.951389 0.901409
vt 0.958334 0.901409
vt 0.180556 0.887324
vt 0.187500 0.887324
vt 0.180556 1.000000
vt 0.187500 1.000000
vt 0.972223 0.788732
vt 0.979167 0.788732
vt 0.972223 0.901408
vt 0.979167 0.901408
vt 0.173611 0.887324
vt 0.180556 0.887324
vt 0.173611 1.000000
vt 0.180556 1.000000
vt 0.166667 0.887324
vt 0.173611 0.887324
vt 0.166667 1.000000
vt 0.173611 1.000000
vt 0.201389 0.887324
vt 0.208334 0.887324
vt 0.201389 1.000000
vt 0.208334 1.000000
vt 0.194445 0.887324
vt 0.201389 0.887324
vt 0.194445 1.000000
vt 0.201389 1.000000
vt 0.527778 0.830986
vt 0.541667 0.830986
vt 0.527778 0.943662
vt 0.541667 0.943662
vt 0.916667 0.788732
vt 0.930555 0.788732
vt 0.916667 0.901408
vt 0.930555 0.901408
vt 0.138889 0.830986
vt 0.159723 0.830986
vt 0.138889 0.943662
vt 0.159723 0.943662
vt 0.527778 0.492958
vt 0.548612 0.492958
vt 0.527778 0.605634
vt 0.548612 0.605634
vt 0.444445 0.774648
vt 0.472222 0.774648
vt 0.444445 0.887324
vt 0.472222 0.887324
vt 0.472223 0.830986
vt 0.500000 0.830986
vt 0.472223 0.943662
vt 0.500000 0.943662
vt 0.000000 0.830986
vt 0.083333 0.830986
vt 0.000000 0.943662
vt 0.083333 0.943662
vn -1.0000 0.0000 0.0000
vn 1.0000 0.0000 0.0000
vn 0.0000 -0.0000 1.0000
vn 0.0000 0.0000 -1.0000
vn 0.0000 -1.0000 -0.0000
vn 0.0000 1.0000 0.0000
usemtl palette
s 1
f 1/1/1 2/2/1 3/3/1
f 4/4/1 2/2/1 1/1/1
f 5/5/1 6/6/1 7/7/1
f 8/8/1 6/6/1 5/5/1
f 9/9/1 10/10/1 11/11/1
f 12/12/1 10/10/1 9/9/1
f 13/13/1 14/14/1 15/15/1
f 16/16/1 14/14/1 13/13/1
f 17/17/1 18/18/1 19/19/1
f 20/20/1 18/18/1 17/17/1
f 21/21/1 22/22/1 23/23/1
f 24/24/1 22/22/1 21/21/1
f 25/25/1 26/26/1 27/27/1
f 28/28/1 26/26/1 25/25/1
f 29/29/1 30/30/1 31/31/1
f 32/32/1 30/30/1 29/29/1
f 33/33/1 34/34/1 35/35/1
f 36/36/1 34/34/1 33/33/1
f 37/37/1 38/38/1 39/39/1
f 40/40/1 38/38/1 37/37/1
f 41/41/1 42/42/1 43/43/1
f 44/44/1 42/42/1 41/41/1
f 45/45/2 46/46/2 47/47/2
f 47/47/2 46/46/2 48/48/2
f 49/49/2 50/50/2 51/51/2
f 51/51/2 50/50/2 52/52/2
f 53/53/2 54/54/2 55/55/2
f 55/55/2 54/54/2 56/56/2
f 57/57/2 58/58/2 59/59/2
f 59/59/2 58/58/2 60/60/2
f 61/61/2 62/62/2 63/63/2
f 63/63/2 62/62/2 64/64/2
f 65/65/2 66/66/2 67/67/2
f 67/67/2 66/66/2 68/68/2
f 69/69/2 70/70/2 71/71/2
f 71/71/2 70/70/2 72/72/2
f 73/73/2 74/74/2 75/75/2
f 75/75/2 74/74/2 76/76/2
f 77/77/2 78/78/2 79/79/2
f 79/79/2 78/78/2 80/80/2
f 81/81/2 82/82/2 83/83/2
f 83/83/2 82/82/2 84/84/2
f 85/85/2 86/86/2 87/87/2
f 87/87/2 86/86/2 88/88/2
f 89/89/3 90/90/3 91/91/3
f 92/92/3 90/90/3 89/89/3
f 93/93/3 94/94/3 95/95/3
f 96/96/3 94/94/3 93/93/3
f 97/97/3 98/98/3 99/99/3
f 100/100/3 101/101/3 97/97/3
f 102/102/3 103/103/3 100/100/3
f 104/104/3 105/105/3 102/102/3
f 106/106/3 107/107/3 104/104/3
f 108/108/3 109/109/3 106/106/3
f 110/110/3 111/111/3 108/108/3
f 112/112/3 113/113/3 110/110/3
f 114/114/3 112/112/3 110/110/3
f 114/114/3 115/115/3 112/112/3
f 116/116/3 115/115/3 114/114/3
f 117/117/3 110/110/3 108/108/3
f 117/117/3 114/114/3 110/110/3
f 118/118/3 114/114/3 117/117/3
f 119/119/3 108/108/3 106/106/3
f 119/119/3 117/117/3 108/108/3
f 120/120/3 117/117/3 119/119/3
f 121/121/3 106/106/3 104/104/3
f 121/121/3 119/119/3 106/106/3
f 122/122/3 119/119/3 121/121/3
f 123/123/3 104/104/3 102/102/3
f 123/123/3 121/121/3 104/104/3
f 124/124/3 121/121/3 123/123/3
f 125/125/3 102/102/3 100/100/3
f 125/125/3 123/123/3 102/102/3
f 126/126/3 123/123/3 125/125/3
f 127/127/3 100/100/3 97/97/3
f 127/127/3 125/125/3 100/100/3
f 128/128/3 125/125/3 127/127/3
f 129/129/3 97/97/3 99/99/3
f 129/129/3 127/127/3 97/97/3
f 130/130/3 127/127/3 129/129/3
f 131/131/3 129/129/3 99/99/3
f 132/132/3 129/129/3 131/131/3
f 133/133/4 134/134/4 135/135/4
f 135/135/4 136/136/4 137/137/4
f 137/137/4 138/138/4 139/139/4
f 139/139/4 140/140/4 141/141/4
f 141/141/4 142/142/4 143/143/4
f 143/143/4 144/144/4 145/145/4
f 145/145/4 146/146/4 147/147/4
f 147/147/4 148/148/4 149/149/4
f 147/147/4 149/149/4 150/150/4
f 149/149/4 151/151/4 150/150/4
f 150/150/4 151/151/4 152/152/4
f 145/145/4 147/147/4 153/153/4
f 147/147/4 150/150/4 153/153/4
f 153/153/4 150/150/4 154/154/4
f 143/143/4 145/145/4 155/155/4
f 145/145/4 153/153/4 155/155/4
f 155/155/4 153/153/4 156/156/4
f 141/141/4 143/143/4 157/157/4
f 143/143/4 155/155/4 157/157/4
f 157/157/4 155/155/4 158/158/4
f 139/139/4 141/141/4 159/159/4
f 141/141/4 157/157/4 159/159/4
f 159/159/4 157/157/4 160/160/4
f 137/137/4 139/139/4 161/161/4
f 139/139/4 159/159/4 161/161/4
f 161/161/4 159/159/4 162/162/4
f 135/135/4 137/137/4 163/163/4
f 137/137/4 161/161/4 163/163/4
f 163/163/4 161/161/4 164/164/4
f 133/133/4 135/135/4 165/165/4
f 135/135/4 163/163/4 165/165/4
f 165/165/4 163/163/4 166/166/4
f 133/133/4 165/165/4 167/167/4
f 167/167/4 165/165/4 168/168/4
f 169/169/4 170/170/4 171/171/4
f 171/171/4 170/170/4 172/172/4
f 173/173/4 174/174/4 175/175/4
f 175/175/4 174/174/4 176/176/4
f 177/177/5 178/178/5 179/179/5
f 180/180/5 178/178/5 177/177/5
f 181/181/6 182/182/6 183/183/6
f 183/183/6 182/182/6 184/184/6
f 181/181/6 183/183/6 185/185/6
f 184/184/6 182/182/6 186/186/6
f 181/181/6 185/185/6 187/187/6
f 185/185/6 186/186/6 187/187/6
f 186/186/6 182/182/6 188/188/6
f 187/187/6 186/186/6 188/188/6
f 189/189/6 190/190/6 191/191/6
f 191/191/6 190/190/6 192/192/6
f 189/189/6 191/191/6 193/193/6
f 192/192/6 190/190/6 194/194/6
f 189/189/6 193/193/6 195/195/6
f 193/193/6 194/194/6 195/195/6
f 194/194/6 190/190/6 196/196/6
f 195/195/6 194/194/6 196/196/6
f 197/197/6 198/198/6 199/199/6
f 199/199/6 198/198/6 200/200/6
f 201/201/6 202/202/6 203/203/6
f 203/203/6 202/202/6 204/204/6
f 205/205/6 206/206/6 207/207/6
f 207/207/6 206/206/6 208/208/6
f 209/209/6 210/210/6 211/211/6
f 211/211/6 210/210/6 212/212/6
f 213/213/6 214/214/6 215/215/6
f 215/215/6 214/214/6 216/216/6
f 217/217/6 218/218/6 219/219/6
f 219/219/6 218/218/6 220/220/6
f 221/221/6 222/222/6 223/223/6
f 223/223/6 222/222/6 224/224/6
f 225/225/6 226/226/6 227/227/6
f 227/227/6 226/226/6 228/228/6
f 229/229/6 230/230/6 231/231/6
f 231/231/6 230/230/6 232/232/6
f 233/233/6 234/234/6 235/235/6
f 235/235/6 234/234/6 236/236/6
f 237/237/6 238/238/6 239/239/6
f 239/239/6 238/238/6 240/240/6
f 241/241/6 242/242/6 243/243/6
f 243/243/6 242/242/6 244/244/6
f 245/245/6 246/246/6 247/247/6
f 247/247/6 246/246/6 248/248/6
f 249/249/6 250/250/6 251/251/6
f 251/251/6 250/250/6 252/252/6
f 253/253/6 254/254/6 255/255/6
f 255/255/6 254/254/6 256/256/6
f 257/257/6 258/258/6 259/259/6
f 259/259/6 258/258/6 260/260/6
f 261/261/6 262/262/6 263/263/6
f 263/263/6 262/262/6 264/264/6
